<svg width="41" height="41" viewBox="0 0 41 41" fill="none" xmlns="http://www.w3.org/2000/svg">
<path fill-rule="evenodd" clip-rule="evenodd" d="M36.0058 10.1425C32.6448 10.1425 29.9203 7.4179 29.9203 4.05699C29.9203 2.96183 30.2096 1.93423 30.7159 1.04646C30.1207 0.923148 29.4939 0.829817 28.832 0.758109C26.5153 0.507103 23.5951 0.507104 19.8695 0.507124H19.6861C15.9606 0.507104 13.0404 0.507103 10.7236 0.758109C8.35931 1.01427 6.44364 1.54636 4.80802 2.73472C3.81781 3.45414 2.94702 4.32494 2.22759 5.31515C1.03924 6.95076 0.507144 8.86643 0.250986 11.2307C-2.00405e-05 13.5475 -1.99251e-05 16.4677 3.59879e-07 20.1931V20.3766C-1.99251e-05 24.1022 -2.00405e-05 27.0224 0.250986 29.3391C0.507144 31.7036 1.03924 33.6191 2.22759 35.2549C2.94702 36.245 3.81781 37.1158 4.80802 37.8351C6.44364 39.0236 8.35931 39.5557 10.7236 39.8119C13.0404 40.0628 15.9606 40.0628 19.6859 40.0628H19.8697C23.5951 40.0628 26.5153 40.0628 28.832 39.8119C31.1964 39.5557 33.112 39.0236 34.7477 37.8351C35.7378 37.1158 36.6087 36.245 37.328 35.2549C38.5165 33.6191 39.0485 31.7036 39.3047 29.3391C39.5557 27.0224 39.5557 24.1022 39.5557 20.3768V20.1931C39.5557 16.4677 39.5557 13.5475 39.3047 11.2307C39.2329 10.5688 39.1396 9.94212 39.0163 9.34686C38.1286 9.85319 37.101 10.1425 36.0058 10.1425ZM30.5903 13.1234C31.3447 13.4934 31.6563 14.4049 31.2863 15.1593L28.3239 21.1982C26.2495 25.4268 20.1531 25.2203 18.3697 20.8611C17.5804 18.9313 14.8817 18.8399 13.9635 20.7118L11.0012 26.7506C10.6312 27.505 9.7197 27.8166 8.96534 27.4466C8.21099 27.0766 7.89943 26.165 8.26947 25.4106L11.2317 19.3717C13.306 15.1431 19.4026 15.3496 21.186 19.7089C21.9753 21.6386 24.674 21.7301 25.5921 19.8582L28.5543 13.8192C28.9245 13.0649 29.8359 12.7533 30.5903 13.1234Z" fill="white"/>
<path d="M31.9488 4.05699C31.9488 6.29761 33.7651 8.11398 36.0058 8.11398C38.2465 8.11398 40.0628 6.29761 40.0628 4.05699C40.0628 1.81638 38.2465 0 36.0058 0C33.7651 0 31.9488 1.81638 31.9488 4.05699Z" fill="white"/>
</svg>
