<svg width="31" height="31" viewBox="0 0 31 31" fill="none" xmlns="http://www.w3.org/2000/svg">
<path d="M13.8624 4.15873V9.70371C13.8624 10.8067 13.4243 11.8645 12.6444 12.6444C11.8645 13.4243 10.8067 13.8624 9.70371 13.8624H4.15873C3.05577 13.8624 1.99798 13.4243 1.21807 12.6444C0.438151 11.8645 0 10.8067 0 9.70371V4.15873C0 3.05577 0.438151 1.99798 1.21807 1.21807C1.99798 0.438151 3.05577 0 4.15873 0H9.70371C10.8067 0 11.8645 0.438151 12.6444 1.21807C13.4243 1.99798 13.8624 3.05577 13.8624 4.15873ZM26.3387 0H20.7937C19.6907 0 18.6329 0.438151 17.853 1.21807C17.0731 1.99798 16.6349 3.05577 16.6349 4.15873V9.70371C16.6349 10.8067 17.0731 11.8645 17.853 12.6444C18.6329 13.4243 19.6907 13.8624 20.7937 13.8624H26.3387C27.4416 13.8624 28.4994 13.4243 29.2793 12.6444C30.0592 11.8645 30.4974 10.8067 30.4974 9.70371V4.15873C30.4974 3.05577 30.0592 1.99798 29.2793 1.21807C28.4994 0.438151 27.4416 0 26.3387 0ZM9.70371 16.6349H4.15873C3.05577 16.6349 1.99798 17.0731 1.21807 17.853C0.438151 18.6329 0 19.6907 0 20.7937V26.3387C0 27.4416 0.438151 28.4994 1.21807 29.2793C1.99798 30.0592 3.05577 30.4974 4.15873 30.4974H9.70371C10.8067 30.4974 11.8645 30.0592 12.6444 29.2793C13.4243 28.4994 13.8624 27.4416 13.8624 26.3387V20.7937C13.8624 19.6907 13.4243 18.6329 12.6444 17.853C11.8645 17.0731 10.8067 16.6349 9.70371 16.6349ZM26.3387 16.6349H20.7937C19.6907 16.6349 18.6329 17.0731 17.853 17.853C17.0731 18.6329 16.6349 19.6907 16.6349 20.7937V26.3387C16.6349 27.4416 17.0731 28.4994 17.853 29.2793C18.6329 30.0592 19.6907 30.4974 20.7937 30.4974H26.3387C27.4416 30.4974 28.4994 30.0592 29.2793 29.2793C30.0592 28.4994 30.4974 27.4416 30.4974 26.3387V20.7937C30.4974 19.6907 30.0592 18.6329 29.2793 17.853C28.4994 17.0731 27.4416 16.6349 26.3387 16.6349Z" fill="white"/>
</svg>
