<svg width="893" height="292" viewBox="0 0 893 292" fill="none" xmlns="http://www.w3.org/2000/svg">
<path d="M80.1405 114.743C66.1287 147.12 74.4995 181.764 101.217 203.031C126.701 223.31 163.386 223.99 189.931 203.693C216.205 183.596 225.582 149.632 212.668 116.167C232.801 140.3 260.87 151.419 291.814 142.731C293.718 225.904 226.806 291.673 146.608 291.99C65.8204 292.326 -1.70833 226.556 0.0329404 142.721C31.0312 151.636 60.787 139.946 80.1405 114.743Z" fill="url(#paint0_linear_502_71)"/>
<path d="M209.784 108.594C196.098 131.875 173.353 145.379 148.386 146.131C122.375 146.911 97.7528 134.369 83.9677 111.088C70.1735 87.7807 47.41 73.6057 19.9941 73.1613C47.4826 26.2921 95.1681 -0.153505 146.626 0.000670363C197.912 0.154845 246.124 28.0605 271.463 73.0253C244.809 74.5035 222.78 86.4929 209.784 108.603V108.594Z" fill="url(#paint1_linear_502_71)"/>
<path d="M346.774 148.245C346.774 116.947 370.037 91.3992 400.037 91.3992C430.038 91.3992 453.3 116.947 453.3 148.245C453.3 179.542 430.047 204.945 400.037 204.945C370.028 204.945 346.774 179.252 346.774 148.245ZM433.049 148.245C433.049 124.13 418.983 106.037 400.028 106.037C381.074 106.037 367.008 124.121 367.008 148.245C367.008 172.368 381.219 190.307 400.028 190.307C418.838 190.307 433.049 172.214 433.049 148.245Z" fill="white"/>
<path d="M506.12 152.262H493.061V203.367H472.818V92.9681H520.05C549.77 92.9681 564.698 103.452 564.698 122.824C564.698 139.193 553.497 149.242 526.226 151.682L571.019 203.357H547.757L506.129 152.253L506.12 152.262ZM493.061 138.196H518.327C537.273 138.196 544.455 133.317 544.455 122.833C544.455 112.349 537.282 107.615 518.327 107.615H493.061V138.196Z" fill="white"/>
<path d="M678.813 148.244C678.813 181.836 654.979 203.367 625.695 203.367H585.065V92.9681H625.695C654.979 92.9681 678.813 114.498 678.813 148.235V148.244ZM658.571 148.244C658.571 123.839 643.933 107.615 623.972 107.615H605.308V188.72H623.972C643.924 188.72 658.571 172.64 658.571 148.235V148.244Z" fill="white"/>
<path d="M718.582 107.615V138.912H773.849V153.559H718.582V188.729H775.863V203.367H698.34V92.9681H775.863V107.615H718.582Z" fill="white"/>
<path d="M828.11 152.262H815.051V203.367H794.809V92.9681H842.041C871.76 92.9681 886.688 103.452 886.688 122.824C886.688 139.193 875.488 149.242 848.217 151.682L893.009 203.357H869.747L828.119 152.253L828.11 152.262ZM815.051 138.196H840.317C859.263 138.196 866.446 133.317 866.446 122.833C866.446 112.349 859.272 107.615 840.317 107.615H815.051V138.196Z" fill="white"/>
<defs>
<linearGradient id="paint0_linear_502_71" x1="227.892" y1="385.16" x2="18.6694" y2="-105.459" gradientUnits="userSpaceOnUse">
<stop/>
<stop offset="1" stop-color="#00FFEA"/>
</linearGradient>
<linearGradient id="paint1_linear_502_71" x1="227.892" y1="385.16" x2="18.6694" y2="-105.459" gradientUnits="userSpaceOnUse">
<stop/>
<stop offset="1" stop-color="#00FFEA"/>
</linearGradient>
</defs>
</svg>
