<svg width="33" height="31" viewBox="0 0 33 31" fill="none" xmlns="http://www.w3.org/2000/svg">
<path d="M30.2762 10.7708C29.6499 10.6799 29.0522 10.4488 28.5277 10.0948C28.0031 9.74084 27.5651 9.27309 27.2464 8.72639C26.9277 8.1797 26.7364 7.56814 26.6868 6.93726C26.6371 6.30639 26.7305 5.67244 26.9598 5.08264C27.1056 4.69706 27.1271 4.27551 27.0213 3.8771C26.9154 3.47869 26.6875 3.1234 26.3696 2.86103C24.9658 1.68226 23.368 0.75624 21.6473 0.12427C21.2555 -0.0212802 20.8277 -0.0394655 20.425 0.0723042C20.0222 0.184074 19.665 0.420097 19.4042 0.746749C19.0117 1.24865 18.5101 1.65459 17.9373 1.93377C17.3646 2.21295 16.7358 2.35804 16.0986 2.35804C15.4615 2.35804 14.8327 2.21295 14.26 1.93377C13.6872 1.65459 13.1856 1.24865 12.7931 0.746749C12.5323 0.420097 12.1751 0.184074 11.7723 0.0723042C11.3696 -0.0394655 10.9418 -0.0212802 10.55 0.12427C8.96123 0.707729 7.47578 1.54103 6.14969 2.59272C5.81543 2.85735 5.57466 3.22204 5.46265 3.63339C5.35063 4.04475 5.37326 4.48116 5.52721 4.87873C5.77487 5.48413 5.87719 6.13915 5.82598 6.79124C5.77476 7.44333 5.57143 8.07435 5.23229 8.63366C4.89315 9.19297 4.42765 9.66502 3.87313 10.0119C3.3186 10.3589 2.69049 10.571 2.03918 10.6313C1.61633 10.6765 1.21917 10.8563 0.906173 11.1442C0.593173 11.4321 0.380874 11.8128 0.300531 12.2304C0.100691 13.2196 2.32254e-05 14.2263 2.32254e-05 15.2355C-0.00144561 16.0804 0.0667575 16.9239 0.203939 17.7576C0.272213 18.1886 0.480563 18.5851 0.796776 18.8858C1.11299 19.1865 1.51945 19.3746 1.95332 19.4211C2.61894 19.4836 3.25991 19.7046 3.82259 20.0656C4.38527 20.4267 4.85328 20.9172 5.18746 21.4962C5.52164 22.0753 5.71225 22.7259 5.74336 23.3937C5.77446 24.0616 5.64514 24.7271 5.36623 25.3347C5.1837 25.7299 5.13842 26.1748 5.23759 26.5987C5.33675 27.0225 5.57468 27.4011 5.91358 27.6744C7.30892 28.8317 8.89137 29.7427 10.5929 30.3682C10.8105 30.4436 11.0388 30.4834 11.2691 30.4863C11.5848 30.4856 11.8957 30.4092 12.1758 30.2635C12.4559 30.1179 12.697 29.9072 12.8789 29.6491C13.2614 29.0918 13.7742 28.6363 14.3727 28.3221C14.9712 28.0079 15.6373 27.8445 16.3133 27.8461C16.9682 27.8469 17.6139 28.0006 18.199 28.295C18.7841 28.5894 19.2923 29.0163 19.6833 29.5418C19.9433 29.8914 20.3117 30.1451 20.731 30.2635C21.1503 30.382 21.597 30.3584 22.0015 30.1965C23.5573 29.5703 25.0058 28.7049 26.2944 27.6314C26.6181 27.3638 26.8486 27.0004 26.9528 26.5935C27.0569 26.1866 27.0293 25.7571 26.874 25.3669C26.6216 24.7693 26.5115 24.1212 26.5525 23.4738C26.5935 22.8263 26.7844 22.1973 27.1102 21.6363C27.4359 21.0753 27.8876 20.5977 28.4296 20.2412C28.9716 19.8847 29.5891 19.6591 30.2332 19.5821C30.6509 19.5244 31.0394 19.3351 31.3423 19.0418C31.6453 18.7485 31.847 18.3664 31.9182 17.9508C32.0906 17.0556 32.184 16.147 32.1973 15.2355C32.1975 14.274 32.1076 13.3147 31.9289 12.3699C31.8565 11.9635 31.6578 11.5902 31.3611 11.3032C31.0644 11.0161 30.6848 10.8298 30.2762 10.7708ZM21.4648 15.2355C21.4648 16.2968 21.1501 17.3343 20.5605 18.2168C19.9708 19.0993 19.1327 19.7871 18.1522 20.1932C17.1717 20.5994 16.0927 20.7057 15.0517 20.4986C14.0108 20.2915 13.0546 19.7805 12.3042 19.03C11.5537 18.2795 11.0426 17.3233 10.8355 16.2824C10.6285 15.2415 10.7348 14.1625 11.1409 13.1819C11.5471 12.2014 12.2349 11.3633 13.1173 10.7737C13.9998 10.184 15.0373 9.8693 16.0986 9.8693C17.5218 9.8693 18.8868 10.4347 19.8931 11.441C20.8995 12.4474 21.4648 13.8123 21.4648 15.2355Z" fill="white"/>
</svg>
