<svg width="30" height="32" viewBox="0 0 30 32" fill="none" xmlns="http://www.w3.org/2000/svg">
<path fill-rule="evenodd" clip-rule="evenodd" d="M22.6211 12.1631C24.1829 12.1631 25.449 13.4292 25.4524 14.9951C25.449 16.5569 24.1829 17.8264 22.6211 17.8264C21.0552 17.8264 19.7857 16.5569 19.7857 14.9951C19.7857 13.4299 21.0559 12.1631 22.6211 12.1631ZM14.9958 12.1631C16.561 12.1631 17.8271 13.4292 17.8271 14.9951C17.8271 16.5569 16.561 17.8264 14.9958 17.8264C13.4292 17.8264 12.1631 16.5569 12.1631 14.9951C12.1631 13.4299 13.4292 12.1631 14.9958 12.1631ZM7.37324 12.1631C8.93501 12.1631 10.2045 13.4292 10.2045 14.9951C10.2045 16.5569 8.93501 17.8264 7.37324 17.8264C5.808 17.8264 4.54126 16.5569 4.54126 14.9951C4.54126 13.4299 5.808 12.1631 7.37324 12.1631ZM14.9958 0C6.69174 0 0 6.47149 0 14.9951C0 19.089 1.54792 22.707 4.06961 25.3617L3.1748 29.3731C2.87976 30.6932 3.79535 31.5811 4.98175 30.9204L8.899 28.7353C10.7607 29.5435 12.8197 29.9902 14.9958 29.9902C23.3026 29.9902 29.9902 23.5229 29.9902 14.9951C29.9902 6.47149 23.3026 0 14.9958 0Z" fill="white"/>
</svg>
