<svg width="36" height="36" viewBox="0 0 36 36" fill="none" xmlns="http://www.w3.org/2000/svg">
<path d="M17.6262 6.21391C11.3334 6.21391 6.21391 11.3334 6.21391 17.6262C6.21391 23.9189 11.3334 29.0384 17.6262 29.0384C23.9189 29.0384 29.0384 23.9189 29.0384 17.6262C29.0384 11.3334 23.9189 6.21391 17.6262 6.21391ZM22.7754 17.6262L17.6262 22.7754L12.4769 17.6262L17.6262 12.4769L22.7754 17.6262Z" fill="white"/>
<path d="M30.0898 5.16254C26.7606 1.83347 22.3343 0 17.6262 0C12.9181 0 8.49175 1.83347 5.16254 5.16254C1.83347 8.49175 0 12.9181 0 17.6262C0 22.3343 1.83347 26.7606 5.16254 30.0898C8.49175 33.4189 12.9181 35.2523 17.6262 35.2523C22.3343 35.2523 26.7606 33.4189 30.0898 30.0898C33.4189 26.7606 35.2523 22.3343 35.2523 17.6262C35.2523 12.9181 33.4189 8.49175 30.0898 5.16254ZM17.6262 31.104C10.1945 31.104 4.14835 25.0579 4.14835 17.6262C4.14835 10.1945 10.1945 4.14835 17.6262 4.14835C25.0579 4.14835 31.104 10.1945 31.104 17.6262C31.104 25.0579 25.0579 31.104 17.6262 31.104Z" fill="white"/>
</svg>
