<svg width="1296" height="424" viewBox="0 0 1296 424" fill="none" xmlns="http://www.w3.org/2000/svg">
<path d="M116.232 166.418C95.9102 213.376 108.051 263.622 146.801 294.467C183.762 323.878 236.968 324.864 275.468 295.427C313.574 266.279 327.174 217.019 308.444 168.483C337.645 203.485 378.355 219.611 423.234 207.01C425.996 327.64 328.95 423.028 212.634 423.489C95.463 423.976 -2.47769 328.587 0.0477754 206.997C45.0063 219.926 88.1628 202.972 116.232 166.418Z" fill="url(#paint0_linear_552_558)"/>
<path d="M304.261 157.5C284.413 191.265 251.424 210.85 215.212 211.942C177.488 213.073 141.776 194.882 121.783 161.117C101.777 127.313 68.7615 106.754 28.9985 106.11C68.8667 38.1328 138.028 -0.222636 212.66 0.000972263C287.043 0.224581 356.967 40.6977 393.718 105.912C355.06 108.056 323.11 125.445 304.261 157.513V157.5Z" fill="url(#paint1_linear_552_558)"/>
<path d="M502.943 215.007C502.943 169.614 536.682 132.561 580.194 132.561C623.705 132.561 657.444 169.614 657.444 215.007C657.444 260.399 623.718 297.242 580.194 297.242C536.669 297.242 502.943 259.978 502.943 215.007ZM628.072 215.007C628.072 180.032 607.671 153.791 580.18 153.791C552.69 153.791 532.289 180.019 532.289 215.007C532.289 249.995 552.9 276.012 580.18 276.012C607.461 276.012 628.072 249.771 628.072 215.007Z" fill="white"/>
<path d="M734.05 220.833H715.109V294.953H685.75V134.836H754.253C797.357 134.836 819.008 150.042 819.008 178.137C819.008 201.879 802.763 216.453 763.211 219.991L828.176 294.94H794.437L734.063 220.82L734.05 220.833ZM715.109 200.432H751.754C779.232 200.432 789.649 193.356 789.649 178.15C789.649 162.945 779.245 156.079 751.754 156.079H715.109V200.432Z" fill="white"/>
<path d="M984.52 215.006C984.52 263.727 949.953 294.953 907.48 294.953H848.553V134.836H907.48C949.953 134.836 984.52 166.062 984.52 214.993V215.006ZM955.162 215.006C955.162 179.61 933.932 156.079 904.981 156.079H877.911V273.71H904.981C933.919 273.71 955.162 250.389 955.162 214.993V215.006Z" fill="white"/>
<path d="M1042.19 156.079V201.471H1122.35V222.714H1042.19V273.723H1125.27V294.953H1012.84V134.836H1125.27V156.079H1042.19Z" fill="white"/>
<path d="M1201.05 220.833H1182.11V294.953H1152.75V134.836H1221.26C1264.36 134.836 1286.01 150.042 1286.01 178.137C1286.01 201.879 1269.77 216.453 1230.21 219.991L1295.18 294.94H1261.44L1201.07 220.82L1201.05 220.833ZM1182.11 200.432H1218.76C1246.24 200.432 1256.65 193.356 1256.65 178.15C1256.65 162.945 1246.25 156.079 1218.76 156.079H1182.11V200.432Z" fill="white"/>
<defs>
<linearGradient id="paint0_linear_552_558" x1="330.524" y1="558.618" x2="27.0785" y2="-152.953" gradientUnits="userSpaceOnUse">
<stop/>
<stop offset="1" stop-color="#00FFEA"/>
</linearGradient>
<linearGradient id="paint1_linear_552_558" x1="330.524" y1="558.618" x2="27.0785" y2="-152.953" gradientUnits="userSpaceOnUse">
<stop/>
<stop offset="1" stop-color="#00FFEA"/>
</linearGradient>
</defs>
</svg>
